<svg version="1.1" id="Layer_1" xmlns="http://www.w3.org/2000/svg" xmlns:xlink="http://www.w3.org/1999/xlink" x="0px" y="0px"
	 width="100%" viewBox="0 0 213 270" enable-background="new 0 0 213 270" xml:space="preserve">
<path fill="#FCFDFD" opacity="1.000000" stroke="none" 
	d="
M131.000000,271.000000 
	C87.333336,271.000000 44.166672,271.000000 1.000006,271.000000 
	C1.000004,181.000015 1.000004,91.000015 1.000002,1.000018 
	C71.999992,1.000012 142.999985,1.000012 213.999969,1.000006 
	C213.999985,90.999977 213.999985,180.999954 214.000000,270.999969 
	C186.500000,271.000000 159.000000,271.000000 131.000000,271.000000 
M133.693054,241.200653 
	C145.810089,234.932159 157.890274,228.590561 170.072647,222.451736 
	C172.782730,221.086090 173.950027,219.514236 173.943970,216.356522 
	C173.825882,154.744644 173.823807,93.132553 173.771164,31.520529 
	C173.770126,30.306368 173.447830,29.092480 173.256531,27.745424 
	C172.271896,28.049543 171.744934,28.103140 171.339233,28.353346 
	C154.627853,38.659843 137.969803,49.053905 121.187119,59.242699 
	C118.098625,61.117729 117.667732,63.504684 117.672806,66.710037 
	C117.765869,125.491051 117.772789,184.272202 117.797844,243.053314 
	C117.798615,244.850220 117.797951,246.647125 117.797951,249.371567 
	C123.373451,246.505768 128.202682,244.023560 133.693054,241.200653 
M102.680779,182.500214 
	C102.680779,141.106979 102.680779,99.713753 102.680779,57.647598 
	C84.124207,67.332924 66.563721,76.434845 49.115398,85.746948 
	C47.941452,86.373474 46.988525,88.586266 46.985268,90.063614 
	C46.892365,132.224854 46.893925,174.386566 47.097706,216.547165 
	C47.106174,218.299820 48.813999,220.688721 50.412254,221.668472 
	C55.220852,224.616211 60.367840,227.011734 65.381493,229.625244 
	C77.577255,235.982635 89.772263,242.341476 102.681580,249.071991 
	C102.681580,226.676285 102.681580,205.088242 102.680779,182.500214 
z"/>
<path fill="#2BA769" opacity="1.000000" stroke="none" 
	d="
M133.362488,241.371002 
	C128.202682,244.023560 123.373451,246.505768 117.797951,249.371567 
	C117.797951,246.647125 117.798615,244.850220 117.797844,243.053314 
	C117.772789,184.272202 117.765869,125.491051 117.672806,66.710037 
	C117.667732,63.504684 118.098625,61.117729 121.187119,59.242699 
	C137.969803,49.053905 154.627853,38.659843 171.339233,28.353346 
	C171.744934,28.103140 172.271896,28.049543 173.256531,27.745424 
	C173.447830,29.092480 173.770126,30.306368 173.771164,31.520529 
	C173.823807,93.132553 173.825882,154.744644 173.943970,216.356522 
	C173.950027,219.514236 172.782730,221.086090 170.072647,222.451736 
	C157.890274,228.590561 145.810089,234.932159 133.362488,241.371002 
z"/>
<path fill="#1D3144" opacity="1.000000" stroke="none" 
	d="
M102.681183,183.000214 
	C102.681580,205.088242 102.681580,226.676285 102.681580,249.071991 
	C89.772263,242.341476 77.577255,235.982635 65.381493,229.625244 
	C60.367840,227.011734 55.220852,224.616211 50.412254,221.668472 
	C48.813999,220.688721 47.106174,218.299820 47.097706,216.547165 
	C46.893925,174.386566 46.892365,132.224854 46.985268,90.063614 
	C46.988525,88.586266 47.941452,86.373474 49.115398,85.746948 
	C66.563721,76.434845 84.124207,67.332924 102.680779,57.647598 
	C102.680779,99.713753 102.680779,141.106979 102.681183,183.000214 
z"/>
</svg>