<svg version="1.1" id="Layer_1" xmlns="http://www.w3.org/2000/svg" xmlns:xlink="http://www.w3.org/1999/xlink" x="0px" y="0px"
	 width="100%" viewBox="0 0 1024 1024" enable-background="new 0 0 1024 1024" xml:space="preserve">
<path fill="#000000" opacity="1.000000" stroke="none" 
	d="
M613.326599,278.000061 
	C613.318359,360.632660 613.226746,442.765442 613.458313,524.897339 
	C613.476868,531.466797 611.629944,534.777710 605.597839,537.745361 
	C580.650940,550.018738 556.050232,562.995483 531.299500,575.669067 
	C529.420776,576.631104 527.694946,578.121582 525.377319,577.995056 
	C523.619507,576.579529 524.115662,574.622742 524.114685,572.864502 
	C524.062378,477.237854 524.050903,381.611176 523.944153,285.984619 
	C523.940186,282.434387 524.959473,280.072357 528.035583,278.172638 
	C555.101440,261.457794 582.103027,244.638916 609.128296,227.858322 
	C610.097046,227.256775 611.046448,226.509857 613.326111,227.014618 
	C613.326111,243.742996 613.326111,260.621521 613.326599,278.000061 
z"/>
<path fill="#000000" opacity="1.000000" stroke="none" 
	d="
M469.600769,290.537170 
	C480.060577,285.088226 490.191498,279.813385 501.299622,274.029724 
	C501.299622,376.113800 501.299622,477.038940 501.299622,577.857117 
	C499.352081,578.758911 498.126068,577.595093 496.862823,576.942993 
	C470.077972,563.117432 443.319672,549.240417 416.527405,535.429382 
	C413.984070,534.118286 412.434296,532.765320 412.432098,529.428467 
	C412.388458,463.293762 412.201508,397.159210 412.047058,331.024597 
	C412.041992,328.858948 412.161896,326.689209 412.065247,324.528473 
	C411.928314,321.468201 413.349762,319.692474 416.045044,318.308350 
	C433.822876,309.178589 451.536987,299.924744 469.600769,290.537170 
z"/>
<path fill="#000000" opacity="1.000000" stroke="none" 
	d="
M469.212158,657.274170 
	C470.609406,670.282898 468.292419,681.570496 457.798859,689.945496 
	C449.196014,696.811646 438.993683,697.854797 428.550812,697.842346 
	C421.402374,697.833801 414.252838,697.465149 407.106506,697.534729 
	C403.895599,697.565918 402.722321,696.566833 402.741791,693.251648 
	C402.855194,673.954468 402.783417,654.656189 402.788452,635.358276 
	C402.789032,633.165344 402.642761,630.741577 405.866333,630.758057 
	C417.338623,630.816711 428.924805,629.947327 440.254578,631.264343 
	C455.255493,633.008118 465.619537,641.437012 469.212158,657.274170 
M448.902008,677.351013 
	C457.969666,663.965820 453.012726,648.599670 438.331512,644.877869 
	C432.959351,643.515930 427.427551,644.294861 421.964691,644.273743 
	C420.125641,644.266602 419.329834,645.445251 419.331146,647.201721 
	C419.339630,658.493958 419.344666,669.786194 419.377441,681.078369 
	C419.381836,682.587708 420.114960,683.739807 421.717957,683.759338 
	C431.067627,683.873352 440.851807,685.880859 448.902008,677.351013 
z"/>
<path fill="#000000" opacity="1.000000" stroke="none" 
	d="
M622.106689,651.236572 
	C628.821106,672.449890 619.082397,691.899475 599.416687,697.192566 
	C577.163696,703.181946 557.093506,692.236328 552.256104,671.472473 
	C547.387878,650.576477 563.234314,630.295898 584.697693,629.645752 
	C601.541931,629.135620 614.661682,634.803345 622.106689,651.236572 
M607.345520,658.439331 
	C603.196777,646.322571 592.303711,640.618896 581.058472,644.675232 
	C570.383789,648.525818 565.167969,660.576904 569.288513,671.870178 
	C573.125610,682.386841 584.773621,687.564148 595.502380,683.521729 
	C604.594238,680.096191 608.604187,672.017761 607.345520,658.439331 
z"/>
<path fill="#000000" opacity="1.000000" stroke="none" 
	d="
M489.107056,691.936707 
	C483.507507,686.153259 480.868256,679.445496 480.697693,671.852173 
	C480.421204,659.542114 480.410309,647.226257 480.186493,634.914734 
	C480.133636,632.007874 481.088440,630.634827 484.185333,630.676880 
	C498.795532,630.875549 496.089508,629.112854 496.296814,641.790039 
	C496.451996,651.279907 496.084137,660.783875 496.437683,670.263367 
	C496.885071,682.258301 507.576263,688.439026 517.918518,682.998169 
	C522.960205,680.345947 524.609680,675.730042 524.698547,670.513672 
	C524.891418,659.192444 525.020020,647.863464 524.795898,636.545105 
	C524.703186,631.862915 526.432190,630.496582 530.923218,630.632568 
	C542.186646,630.973633 541.320007,629.417542 541.207886,640.740234 
	C541.099243,651.717896 541.971497,662.723022 540.633301,673.671448 
	C538.258362,693.102478 524.136902,699.608948 507.800842,699.002197 
	C501.063995,698.751953 494.714233,696.620789 489.107056,691.936707 
z"/>
<path fill="#000000" opacity="1.000000" stroke="none" 
	d="
M662.646240,770.418823 
	C656.415466,762.583313 650.403320,755.040955 644.391174,747.498596 
	C644.025024,747.524170 643.658936,747.549744 643.292786,747.575256 
	C643.292786,752.549927 643.293762,757.524536 643.292297,762.499207 
	C643.291748,764.331848 643.288269,766.164429 643.281128,767.997070 
	C643.253357,775.123962 640.910706,776.853149 633.795471,775.266235 
	C631.364136,774.723999 631.140991,773.069580 631.127747,771.169128 
	C631.090454,765.838135 630.857727,760.494324 631.140076,755.178772 
	C631.529480,747.848633 631.386353,740.543091 631.195679,733.217529 
	C631.129395,730.674927 629.694031,726.848694 633.555908,726.016479 
	C637.341248,725.200745 641.356628,724.870300 644.372253,728.904724 
	C649.554993,735.838501 655.135559,742.475342 660.567566,749.221985 
	C661.579407,750.478699 662.677734,751.665833 665.065857,752.637939 
	C665.065857,745.746521 665.230469,738.849731 665.008179,731.965454 
	C664.858887,727.340576 666.391296,725.503906 671.312683,725.556030 
	C675.971436,725.605469 677.383118,727.203247 677.299866,731.690613 
	C677.074402,743.848572 677.282898,756.014099 677.131042,768.174255 
	C677.100891,770.584595 678.530579,774.262024 674.902222,774.962952 
	C671.359619,775.647217 667.177124,776.695801 664.402405,772.681213 
	C663.929688,771.997253 663.379333,771.367065 662.646240,770.418823 
z"/>
<path fill="#000000" opacity="1.000000" stroke="none" 
	d="
M540.699585,739.319824 
	C544.531189,743.937317 548.140381,748.275452 552.032776,752.953918 
	C553.783569,750.884155 553.585266,748.732178 553.608826,746.697205 
	C553.674194,741.035645 553.789612,735.369751 553.637939,729.712219 
	C553.516418,725.180725 556.603882,725.722473 559.403931,725.721008 
	C562.205078,725.719482 565.316223,725.181641 565.296997,729.649109 
	C565.237671,743.470947 565.286072,757.293274 565.265442,771.115417 
	C565.263000,772.773254 565.358948,774.857727 563.125732,775.005615 
	C559.592529,775.239563 555.833557,776.320557 552.996826,772.721802 
	C547.328613,765.530823 541.510986,758.457275 535.737610,751.349487 
	C534.726135,750.104187 533.629211,748.928406 532.114990,747.198792 
	C530.939880,755.335632 531.232910,762.774719 531.425354,770.166809 
	C531.542053,774.651184 529.505737,775.347168 525.705566,775.357178 
	C521.785950,775.367493 519.496338,774.830811 519.598755,770.006897 
	C519.867126,757.356140 519.624512,744.695312 519.734070,732.039734 
	C519.752380,729.928650 518.501343,726.688904 521.633972,726.074402 
	C524.885925,725.436462 528.693665,724.458618 531.415894,727.742493 
	C534.496460,731.458618 537.461853,735.270325 540.699585,739.319824 
z"/>
<path fill="#000000" opacity="1.000000" stroke="none" 
	d="
M360.877625,749.349121 
	C360.808472,764.800720 351.220856,775.204041 336.571320,776.222595 
	C321.348389,777.281006 309.577148,768.190063 307.328583,753.638428 
	C304.804504,737.303894 320.397339,722.483643 337.404327,725.052795 
	C351.182800,727.134338 358.548096,734.647827 360.877625,749.349121 
M325.129669,762.476379 
	C326.276245,763.132202 327.361938,763.944824 328.579620,764.417419 
	C334.873901,766.860229 341.759308,765.016357 345.568848,759.958618 
	C349.587097,754.623779 349.617126,746.799011 345.640472,741.336731 
	C342.023193,736.368042 334.770844,734.327759 328.677521,736.505554 
	C319.946136,739.626160 315.072784,753.481384 325.129669,762.476379 
z"/>
<path fill="#000000" opacity="1.000000" stroke="none" 
	d="
M467.700348,771.780090 
	C467.663605,757.833008 467.756958,744.363525 467.574188,730.897827 
	C467.521515,727.017090 468.817230,725.451599 472.739532,725.689819 
	C480.680603,726.172180 488.720520,724.755371 496.581146,726.727722 
	C503.377136,728.432983 508.094147,732.295776 509.634491,739.544495 
	C511.113708,746.505371 509.597321,752.491821 504.093750,757.024963 
	C501.688446,759.006104 501.669525,760.458252 503.352142,762.787659 
	C505.946808,766.379700 508.278076,770.161926 510.760193,773.922729 
	C503.588745,777.151733 498.607239,775.778503 494.871674,769.888977 
	C493.536469,767.783936 492.199738,765.679504 490.832733,763.595032 
	C488.477020,760.002869 484.824493,761.207703 481.733246,761.589539 
	C478.401123,762.001282 479.644989,765.158813 479.405640,767.298035 
	C479.295471,768.282654 479.480835,769.298706 479.387939,770.286987 
	C479.203949,772.244141 480.302460,775.424683 476.911957,775.093567 
	C473.789734,774.788574 469.292755,777.834351 467.700348,771.780090 
M494.487854,750.141174 
	C498.460846,746.494690 499.060211,741.677856 495.933594,738.522400 
	C493.477356,736.043518 482.475616,734.889160 480.389740,736.945496 
	C479.954803,737.374329 479.562714,738.078735 479.549530,738.665039 
	C479.471375,742.134338 479.439270,745.608398 479.540009,749.076538 
	C479.592712,750.890259 480.853333,751.665039 482.567749,751.632507 
	C486.338806,751.560974 490.199554,752.348206 494.487854,750.141174 
z"/>
<path fill="#000000" opacity="1.000000" stroke="none" 
	d="
M300.290771,750.257507 
	C301.631134,756.343872 300.943146,762.176636 301.054504,767.986328 
	C301.095093,770.103882 299.772461,771.295166 297.990021,772.126526 
	C289.584534,776.046875 280.949524,777.691467 271.805542,774.990723 
	C258.738495,771.131226 251.513412,758.191650 254.699646,744.250183 
	C257.592529,731.592285 271.112793,722.853638 284.592377,725.016602 
	C289.052155,725.732239 293.475739,726.799072 297.097870,729.676880 
	C298.810272,731.037354 302.663300,732.288269 300.019287,735.143982 
	C297.999390,737.325562 296.181396,742.082764 291.252197,738.771423 
	C286.767517,735.758728 281.679565,734.995972 276.422028,736.538025 
	C270.983124,738.133301 267.465485,741.806152 266.503113,747.340637 
	C265.478516,753.233032 266.635651,758.744934 271.788330,762.538696 
	C276.579010,766.065918 281.903168,766.495117 287.446472,764.417786 
	C288.852142,763.891113 289.543518,762.845581 289.591309,761.364746 
	C289.623535,760.365967 289.639191,759.366394 289.648376,758.367126 
	C289.736816,748.756775 289.911102,748.614502 300.290771,750.257507 
z"/>
<path fill="#000000" opacity="1.000000" stroke="none" 
	d="
M769.746948,745.636108 
	C774.477112,745.137878 774.585999,747.965027 774.618958,751.003174 
	C774.653320,754.169739 773.256104,755.439392 770.067810,755.326050 
	C765.415710,755.160522 760.748840,755.414307 756.096008,755.258850 
	C752.203979,755.128967 751.851807,757.462036 751.909302,760.431213 
	C751.965393,763.327820 752.201721,765.751343 756.135559,765.606812 
	C761.784668,765.399231 767.455811,765.673950 773.094482,765.345825 
	C776.778564,765.131348 778.777466,766.054749 778.879456,770.074707 
	C778.973877,773.795715 777.731201,775.497375 773.705933,775.411621 
	C763.894714,775.202637 754.074829,775.241150 744.261414,775.383606 
	C740.756897,775.434509 739.612610,774.022217 739.639526,770.650208 
	C739.745972,757.341797 739.759277,744.031311 739.623352,730.723389 
	C739.586914,727.153442 740.708008,725.605469 744.464783,725.670532 
	C753.944702,725.834656 763.430664,725.810059 772.911621,725.677124 
	C776.490845,725.626892 777.432129,727.253479 777.421753,730.538574 
	C777.411438,733.799988 776.970459,736.113403 772.947815,736.008301 
	C767.128296,735.856140 761.301270,735.980591 755.482666,735.809692 
	C752.808899,735.731201 751.228333,736.529175 751.470764,739.411316 
	C751.696289,742.091919 750.948120,745.524292 755.304932,745.604065 
	C759.961609,745.689392 764.620850,745.632019 769.746948,745.636108 
z"/>
<path fill="#000000" opacity="1.000000" stroke="none" 
	d="
M419.598267,759.003845 
	C419.659973,749.367493 419.034576,740.232971 419.487701,731.072998 
	C419.670013,727.388000 420.483032,725.605042 424.560669,725.692444 
	C433.878448,725.892273 443.205841,725.847900 452.525146,725.676331 
	C456.334595,725.606201 457.320007,727.301147 457.379791,730.801270 
	C457.440857,734.378357 456.303986,736.118103 452.583954,735.961304 
	C447.265808,735.736938 441.939789,735.697021 436.621887,735.468140 
	C432.931885,735.309448 431.221222,736.590820 431.182678,740.633301 
	C431.144531,744.633667 432.542267,745.950989 436.433716,745.721741 
	C440.912231,745.458008 445.424316,745.813843 449.912445,745.647339 
	C453.701355,745.506836 454.235840,747.645386 454.267883,750.704407 
	C454.300201,753.787964 453.263336,755.360413 449.952271,755.278870 
	C445.127930,755.160156 440.291016,755.436462 435.472412,755.235107 
	C431.054443,755.050415 431.397797,757.870544 431.281250,760.825256 
	C431.154236,764.046448 431.922577,765.820801 435.664520,765.685181 
	C441.815704,765.462341 447.983521,765.734070 454.139221,765.586243 
	C457.504730,765.505371 458.452301,767.070129 458.373383,770.141663 
	C458.299286,773.026672 458.276001,775.429321 454.288208,775.375488 
	C443.968903,775.236267 433.646423,775.272827 423.325775,775.332275 
	C420.574982,775.348145 419.410309,774.294128 419.521484,771.479492 
	C419.679047,767.489990 419.585907,763.490540 419.598267,759.003845 
z"/>
<path fill="#000000" opacity="1.000000" stroke="none" 
	d="
M625.219482,774.208740 
	C621.896729,776.000549 618.537048,775.327515 615.279846,775.125061 
	C612.342834,774.942566 611.934814,772.097168 611.350464,769.952820 
	C610.353333,766.293579 608.285583,764.733643 604.474487,765.085815 
	C601.831665,765.330078 599.132385,765.330444 596.487061,765.103821 
	C590.590759,764.598877 586.298157,765.360352 583.992493,772.314270 
	C582.116028,777.973633 576.413635,774.537476 572.523682,775.029724 
	C571.431580,772.448059 572.583435,770.857971 573.305908,769.228760 
	C579.109863,756.140320 585.101379,743.131897 590.675415,729.946716 
	C592.237549,726.251587 594.527588,725.542603 598.023682,725.639221 
	C601.595886,725.737976 604.646240,725.531433 606.468689,729.862488 
	C612.342407,743.821655 618.668579,757.590271 624.790405,771.445557 
	C625.116699,772.184143 625.168945,773.043701 625.219482,774.208740 
M594.375549,748.821411 
	C593.938965,750.846558 592.092285,752.552124 592.984802,755.122986 
	C596.689636,755.831055 600.362732,756.194580 604.591309,754.676208 
	C602.841919,749.676880 601.314697,744.897705 598.648743,740.304138 
	C596.499878,742.787720 595.906738,745.623108 594.375549,748.821411 
z"/>
<path fill="#000000" opacity="1.000000" stroke="none" 
	d="
M700.458130,741.580078 
	C696.372375,749.205017 697.192871,756.896118 702.339722,761.490112 
	C707.368042,765.978333 715.489685,766.525330 721.749939,761.926514 
	C726.724670,758.272156 728.239807,762.897278 730.510254,764.984314 
	C733.585999,767.811646 730.167419,769.341370 728.437927,770.735840 
	C717.792969,779.318481 701.136414,777.832764 691.736145,767.578674 
	C682.980286,758.027649 683.137024,742.406067 692.083008,733.010132 
	C701.503296,723.116028 718.506409,722.018982 728.980347,730.664124 
	C730.458618,731.884216 733.048340,733.613220 730.794617,735.318359 
	C728.390930,737.137085 727.264587,742.552063 722.111267,739.165039 
	C713.865906,733.745911 707.114807,734.578125 700.458130,741.580078 
z"/>
<path fill="#000000" opacity="1.000000" stroke="none" 
	d="
M377.093079,762.821960 
	C372.058136,750.545715 366.235992,738.991028 362.055573,726.703796 
	C372.097046,723.989990 373.955963,724.916992 377.511841,733.383972 
	C380.970428,741.619141 384.591278,749.786255 388.490326,758.790161 
	C392.324219,753.015381 394.029358,747.283081 396.484589,741.928345 
	C397.870392,738.906006 399.067841,735.796814 400.335358,732.720703 
	C403.483826,725.079651 405.725250,724.085999 414.082703,726.648560 
	C414.879120,728.257629 413.833221,729.544434 413.272552,730.874512 
	C407.651154,744.209778 401.852997,757.473145 396.441254,770.892517 
	C394.875000,774.776306 392.445068,775.541870 388.751770,775.430908 
	C385.124786,775.321960 381.741608,775.533508 380.422546,771.032898 
	C379.631470,768.333801 378.330933,765.784058 377.093079,762.821960 
z"/>
</svg>